<svg xmlns="http://www.w3.org/2000/svg" width="48" height="48" viewBox="0 0 48 48"><defs><style>.a{fill:#303f9f;}.b{fill:#f5f5f5;}</style></defs><title>BLECharacteristicElement</title><rect class="a" width="48" height="48" rx="5" ry="5"/><path class="b" d="M35.305,38.973h1.434l-.091.567H34.542l.65-4.054h.671Zm4.609-2.95L40,35.486H37.678l-.65,4.054h2.35l.087-.55H37.787l.2-1.268h1.3l.086-.54h-1.3l.186-1.159ZM29.413,40V31.266L25.769,34.91l-1.326-1.325L29.017,29l-4.574-4.585,1.326-1.325,3.644,3.644V18l6.625,6.625L31.663,29l4.375,4.375Zm1.862-17.475v4.229L33.39,24.64Zm0,12.95L33.39,33.36l-2.114-2.114ZM10.75,20.083h6.4a2,2,0,1,0,0-1.5h-6.4V11.852a2,2,0,1,0-1.5,0V38a.75.75,0,0,0,.75.75h7.148a2,2,0,1,0,0-1.5h-6.4V29.417h6.4a2,2,0,1,0,0-1.5h-6.4Z"/></svg>