<svg xmlns="http://www.w3.org/2000/svg" width="48" height="48" viewBox="0 0 48 48"><defs><style>.a{fill:#f57c00;}.b{fill:#f5f5f5;}</style></defs><title>RGBLEDElement</title><rect class="a" width="48" height="48" rx="5" ry="5"/><path class="b" d="M33.227,19.9c.018-.236.036-.471.036-.711a9.263,9.263,0,0,0-18.526,0c0,.24.018.475.036.711A9.256,9.256,0,1,0,24,35.15,9.254,9.254,0,1,0,33.227,19.9ZM15.94,19.188a8.06,8.06,0,0,1,16.12,0c0,.156-.015.309-.023.463A9.086,9.086,0,0,0,24,22.474a9.086,9.086,0,0,0-8.037-2.823C15.955,19.5,15.94,19.344,15.94,19.188Zm9.383,9.624A8.008,8.008,0,0,1,24,33.225a8.008,8.008,0,0,1-1.323-4.413c0-.156.014-.309.023-.463a8.335,8.335,0,0,0,2.6,0C25.309,28.5,25.323,28.656,25.323,28.812ZM24,27.248a8.087,8.087,0,0,1-1.151-.092A8.026,8.026,0,0,1,24,24.4a8.026,8.026,0,0,1,1.151,2.757A8.087,8.087,0,0,1,24,27.248ZM21.674,26.9a8.086,8.086,0,0,1-5.561-6.059,7.9,7.9,0,0,1,7.114,2.566A9.2,9.2,0,0,0,21.674,26.9Zm3.1-3.493a7.9,7.9,0,0,1,7.114-2.566A8.086,8.086,0,0,1,26.326,26.9,9.2,9.2,0,0,0,24.773,23.41Zm-7.51,13.462A8.059,8.059,0,0,1,14.937,21.1a9.284,9.284,0,0,0,6.573,7c-.018.236-.036.471-.036.711a9.208,9.208,0,0,0,1.753,5.4A8.032,8.032,0,0,1,17.263,36.872Zm13.474,0a8.032,8.032,0,0,1-5.964-2.657,9.208,9.208,0,0,0,1.753-5.4c0-.24-.018-.475-.036-.711a9.284,9.284,0,0,0,6.573-7,8.059,8.059,0,0,1-2.326,15.775Z"/></svg>